<?xml version="1.0" standalone="no"?>
<!DOCTYPE svg PUBLIC "-//W3C//DTD SVG 20010904//EN"
 "http://www.w3.org/TR/2001/REC-SVG-20010904/DTD/svg10.dtd">
<svg version="1.0" xmlns="http://www.w3.org/2000/svg"
 width="575.000000pt" height="575.000000pt" viewBox="0 0 575.000000 575.000000"
 preserveAspectRatio="xMidYMid meet">
<metadata>
Created by potrace 1.14, written by Peter Selinger 2001-2017
</metadata>
<g transform="translate(0.000000,575.000000) scale(0.100000,-0.100000)"
fill="#000000" stroke="none">
<path d="M0 2875 l0 -2875 2875 0 2875 0 0 2875 0 2875 -2875 0 -2875 0 0
-2875z m622 2371 c59 -38 74 -136 30 -195 -10 -14 -52 -53 -93 -86 l-73 -60
97 -3 97 -3 0 -39 0 -40 -156 0 -156 0 6 31 c12 64 40 101 117 161 73 56 99
92 99 134 0 22 -38 54 -64 54 -27 0 -66 -42 -66 -71 0 -15 -8 -19 -40 -19 -38
0 -40 2 -40 30 0 36 19 77 49 104 40 37 138 38 193 2z m368 -116 l0 -140 25 0
c22 0 25 -4 25 -34 0 -28 -4 -35 -22 -38 -20 -3 -23 -10 -26 -50 l-3 -48 -39
0 -39 0 -3 48 -3 47 -87 3 -88 3 0 40 c0 32 16 65 82 174 l81 135 49 0 48 0 0
-140z m1356 -980 c349 -27 600 -148 779 -375 90 -114 172 -289 189 -406 4 -24
9 -56 12 -71 l6 -28 -265 0 -265 0 -18 53 c-22 66 -69 162 -103 206 -44 58
-136 118 -224 147 -112 36 -277 39 -382 6 -227 -70 -379 -281 -429 -598 -10
-62 -16 -163 -16 -260 0 -329 60 -523 210 -675 119 -121 236 -170 408 -170
276 0 443 127 532 405 l22 66 259 0 c214 0 259 -2 259 -14 0 -32 -51 -206 -81
-276 -117 -278 -333 -486 -597 -576 -295 -101 -670 -80 -937 54 -140 70 -244
153 -337 270 -201 254 -286 555 -275 977 7 278 45 459 137 652 175 369 498
588 910 616 25 2 54 4 65 5 11 1 74 -3 141 -8z m2388 -656 c14 -5 16 -37 16
-249 l0 -242 -142 -5 c-116 -4 -154 -9 -201 -27 -118 -46 -188 -128 -223 -262
-15 -55 -18 -140 -21 -591 l-5 -528 -244 0 -244 0 0 930 0 930 235 0 235 0 0
-157 0 -157 49 72 c78 113 110 148 170 189 84 58 146 82 246 93 84 10 111 11
129 4z"/>
<path d="M887 5148 c-44 -72 -87 -146 -87 -152 0 -3 25 -6 55 -6 l55 0 0 90
c0 50 -2 90 -5 90 -2 0 -11 -10 -18 -22z"/>
</g>
</svg>
